<svg xmlns="http://www.w3.org/2000/svg" viewBox="0 0 143 43.72"><defs><style>.cls-1{fill:#00509c;}</style></defs><g id="Capa_2" data-name="Capa 2"><g id="Capa_1-2" data-name="Capa 1"><polygon class="cls-1" points="24.09 0 17.1 13.96 19.47 18.72 25.94 5.66 25.94 27.84 30.07 27.84 30.07 0 24.09 0"/><path class="cls-1" d="M70.1,3.39V27.84H66V3.39H56.64V0H79.39V3.39Z"/><path class="cls-1" d="M110.16,27.84V0h4.13V27.84Z"/><path class="cls-1" d="M100.66,21.09a41.39,41.39,0,0,1-3.55-4.74,8,8,0,0,0,5-7.73c0-5.9-3.74-8.62-9.45-8.62H83.08V27.84h4.17V3.31h4.53c4.18,0,6,1.65,6,5.51S95.1,14.26,91,14.29v3.19h1.89l4.57,6.06c2.8,3.42,5.58,4.61,8.14,4.77l1-3.47A12,12,0,0,1,100.66,21.09Z"/><polygon class="cls-1" points="17.4 22.86 5.99 0 0 0 0 27.84 4.13 27.84 4.13 5.66 12.65 22.86 17.4 22.86"/><polygon class="cls-1" points="133.59 12.79 142.09 0 137.53 0 118.86 27.84 123.51 27.84 131.11 15.95 138.16 27.84 143 27.84 133.59 12.79"/><polygon class="cls-1" points="129.09 5.84 125.64 0 120.83 0 126.69 9.41 129.09 5.84"/><polygon class="cls-1" points="46.35 14.84 42.36 14.84 46.3 2.71 54.63 27.84 58.99 27.84 49.42 0 43.19 0 33.62 27.84 37.95 27.84 41.3 17.99 47.38 17.99 46.35 14.84"/><path class="cls-1" d="M24.14,43.62l-.82-2.4H20.68l-.92,2.4h-1l2.66-6.78h1.45l2.33,6.78Zm-1.7-5-.35-1.13-.42,1.13L21,40.46h2.08Z"/><path class="cls-1" d="M27.88,43.72a4.08,4.08,0,0,1-2-.43l.32-.78a4,4,0,0,0,1.66.37c.83,0,1.5-.29,1.5-1,0-1.54-3.29-1.14-3.29-3.4,0-1.15,1-1.68,2.12-1.68a4.09,4.09,0,0,1,1.81.34l-.31.75a3.91,3.91,0,0,0-1.46-.25c-.72,0-1.19.21-1.19.82,0,1.36,3.34,1.18,3.34,3.36C30.39,43.15,29.23,43.72,27.88,43.72Z"/><path class="cls-1" d="M33.51,43.72a4.08,4.08,0,0,1-2-.43l.31-.78a4.11,4.11,0,0,0,1.66.37c.83,0,1.51-.29,1.51-1,0-1.54-3.29-1.14-3.29-3.4,0-1.15,1-1.68,2.12-1.68a4.13,4.13,0,0,1,1.81.34l-.32.75a3.89,3.89,0,0,0-1.45-.25c-.72,0-1.19.21-1.19.82,0,1.36,3.34,1.18,3.34,3.36C36,43.15,34.85,43.72,33.51,43.72Z"/><path class="cls-1" d="M37.69,43.62V36.84h4v.81h-3v2.17h2.75v.79H38.7V42.8h3.18v.83Z"/><path class="cls-1" d="M45.88,37.67v5.95h-1V37.67H42.61v-.83h5.53v.83Z"/><path class="cls-1" d="M59,43.62V39.14l.05-1-2.13,5.45H55.54l-1.88-5.48.06.91v4.57h-1V36.84h1.45l2.11,6,2.38-6H60v6.78Z"/><path class="cls-1" d="M66.66,43.62l-.81-2.4H63.2l-.92,2.4h-1l2.65-6.78h1.46l2.32,6.78Zm-1.7-5-.35-1.13-.41,1.13-.7,1.88h2.09Z"/><path class="cls-1" d="M73.08,43.62l-3.17-5.7.06.82v4.88H69V36.84h1.39l3.26,5.87-.09-.93V36.84h1v6.78Z"/><path class="cls-1" d="M81.16,43.62l-.81-2.4H77.7l-.92,2.4h-1l2.65-6.78h1.46l2.32,6.78Zm-1.7-5-.35-1.13-.41,1.13L78,40.46h2.09Z"/><path class="cls-1" d="M86.32,43.71a3.26,3.26,0,0,1-3.56-3.44,3.2,3.2,0,0,1,3.55-3.5,4.81,4.81,0,0,1,2,.34l-.28.78a4.7,4.7,0,0,0-1.69-.26,2.31,2.31,0,0,0-2.52,2.55,2.48,2.48,0,0,0,2.69,2.66,6.27,6.27,0,0,0,.91-.06v-2h1V43.4A6.06,6.06,0,0,1,86.32,43.71Z"/><path class="cls-1" d="M90.36,43.62V36.84h4v.81h-3v2.17h2.75v.79H91.37V42.8h3.18v.83Z"/><path class="cls-1" d="M102.59,43.62V39.14l0-1-2.13,5.45H99.12l-1.89-5.48.07.91v4.57h-1V36.84h1.46l2.11,6,2.37-6h1.36v6.78Z"/><path class="cls-1" d="M105.92,43.62V36.84h4v.81h-3v2.17h2.75v.79h-2.75V42.8h3.18v.83Z"/><path class="cls-1" d="M116,43.62l-3.17-5.7,0,.82v4.88h-1V36.84h1.39l3.26,5.87-.09-.93V36.84h1v6.78Z"/><path class="cls-1" d="M122,37.67v5.95h-1V37.67h-2.27v-.83h5.54v.83Z"/></g></g></svg>