<svg xmlns="http://www.w3.org/2000/svg" viewBox="0 0 50 50"><defs><style>.cls-1{fill:#f0f0f0;}.cls-2{fill:#d80027;}.cls-3{fill:#0052b4;}</style></defs><g id="Capa_2" data-name="Capa 2"><g id="Capa_1-2" data-name="Capa 1"><circle class="cls-1" cx="25" cy="25" r="25"/><path class="cls-2" d="M23.91,25H50a25,25,0,0,0-.86-6.52H23.91Z"/><path class="cls-2" d="M23.91,12H46.33a25.19,25.19,0,0,0-5.77-6.53H23.91Z"/><path class="cls-2" d="M25,50a24.9,24.9,0,0,0,15.56-5.43H9.44A24.9,24.9,0,0,0,25,50Z"/><path class="cls-2" d="M3.67,38H46.33a24.78,24.78,0,0,0,2.81-6.52H.86A24.78,24.78,0,0,0,3.67,38Z"/><path class="cls-3" d="M11.58,3.9h2.28L11.74,5.44l.81,2.49L10.43,6.4,8.31,7.93,9,5.78a25.24,25.24,0,0,0-4.85,5.41h.73l-1.35,1c-.21.35-.41.7-.6,1.06l.64,2-1.2-.88c-.3.64-.57,1.28-.82,1.94l.71,2.19H4.89L2.77,20l.81,2.49L1.46,21l-1.27.92A26.67,26.67,0,0,0,0,25H25V0A24.9,24.9,0,0,0,11.58,3.9Zm1,18.6L10.43,21,8.31,22.5,9.12,20,7,18.47H9.62L10.43,16l.81,2.49h2.62L11.74,20Zm-.81-9.77.81,2.49-2.12-1.54L8.31,15.22l.81-2.49L7,11.19H9.62l.81-2.49.81,2.49h2.62Zm9.78,9.77L19.4,21,17.28,22.5,18.09,20,16,18.47h2.62L19.4,16l.81,2.49h2.62L20.71,20Zm-.81-9.77.81,2.49L19.4,13.68l-2.12,1.54.81-2.49L16,11.19h2.62L19.4,8.7l.81,2.49h2.62Zm0-7.29.81,2.49L19.4,6.4,17.28,7.93l.81-2.49L16,3.9h2.62l.81-2.49.81,2.49h2.62Z"/></g></g></svg>